<?xml version="1.0" standalone="no"?>
<!DOCTYPE svg PUBLIC "-//W3C//DTD SVG 20010904//EN"
 "http://www.w3.org/TR/2001/REC-SVG-20010904/DTD/svg10.dtd">
<svg version="1.0" xmlns="http://www.w3.org/2000/svg"
 width="640.000000pt" height="640.000000pt" viewBox="0 0 640.000000 640.000000"
 preserveAspectRatio="xMidYMid meet">

<g transform="translate(0.000000,640.000000) scale(0.100000,-0.100000)"
fill="#000000" stroke="none">
<path d="M5263 4018 c-6 -7 -13 -44 -16 -83 -4 -38 -11 -119 -17 -180 -6 -60
-19 -201 -29 -312 -9 -111 -20 -205 -23 -208 -3 -4 -19 17 -34 45 -21 39 -33
50 -48 48 -17 -3 -30 -33 -79 -185 -33 -101 -63 -183 -68 -183 -5 0 -9 5 -9
10 0 12 -137 386 -151 412 -5 10 -17 18 -27 18 -13 0 -29 -33 -66 -145 l-50
-145 -1110 -2 -1111 -3 0 -24 0 -24 1128 1 c621 0 1131 3 1133 5 3 3 21 51 40
108 19 56 36 105 39 107 5 6 21 -33 100 -250 62 -171 82 -207 105 -193 4 3 36
90 70 195 34 104 65 190 69 190 4 0 18 -22 31 -50 30 -63 55 -88 73 -71 14 13
29 136 48 384 7 92 16 167 21 167 4 0 8 -12 8 -27 0 -27 13 -182 45 -538 8
-88 21 -236 30 -330 8 -93 19 -215 25 -270 5 -55 15 -163 21 -240 6 -77 14
-150 19 -162 10 -23 34 -31 44 -14 8 12 54 289 116 696 10 66 25 161 33 210 8
50 21 128 27 175 7 47 14 92 17 100 8 22 17 -12 54 -209 33 -171 44 -200 72
-172 7 7 21 51 33 99 l21 87 197 3 196 2 0 25 0 25 -220 0 -220 0 -7 -30 c-8
-44 -20 -45 -27 -2 -32 184 -71 370 -82 381 -30 33 -40 5 -73 -201 -18 -111
-46 -286 -62 -388 -54 -340 -68 -425 -75 -472 -3 -26 -10 -46 -14 -43 -4 2
-13 71 -19 152 -7 82 -17 193 -22 248 -5 55 -18 201 -29 325 -11 124 -26 302
-35 395 -8 94 -22 251 -31 350 -15 165 -23 205 -44 205 -4 0 -12 -6 -17 -12z"/>
<path d="M3416 3780 c-68 -21 -113 -100 -97 -171 17 -74 58 -109 131 -109 60
0 90 15 90 45 0 29 -7 31 -32 8 -27 -24 -84 -22 -110 4 -15 15 -23 38 -26 77
-4 51 -2 57 26 86 17 16 38 30 47 30 25 0 55 -19 55 -35 0 -8 9 -15 20 -15 26
0 28 55 3 68 -30 16 -77 21 -107 12z"/>
<path d="M4449 3780 c-46 -13 -77 -40 -93 -81 -21 -51 -20 -75 3 -126 23 -49
62 -73 120 -73 61 0 91 15 91 46 0 14 -3 24 -7 22 -82 -42 -115 -42 -147 4
-19 26 -21 96 -5 132 22 48 100 59 114 15 9 -29 39 -20 43 13 2 18 -3 30 -15
36 -29 15 -76 20 -104 12z"/>
<path d="M6073 3781 c-37 -10 -63 -39 -63 -68 0 -39 11 -53 72 -88 62 -36 74
-68 34 -86 -20 -10 -30 -9 -51 5 -14 9 -25 23 -25 32 0 9 -7 14 -17 12 -29 -5
-24 -60 7 -75 55 -28 146 -9 156 33 14 56 2 78 -63 112 -65 34 -78 57 -48 82
19 15 65 5 65 -15 0 -8 9 -15 20 -15 15 0 20 7 20 29 0 29 0 30 -70 45 -8 2
-25 1 -37 -3z"/>
<path d="M1880 3770 c0 -5 9 -14 20 -20 18 -10 20 -21 20 -110 0 -90 -2 -100
-20 -110 -32 -17 -14 -30 40 -30 49 0 75 15 46 26 -21 8 -21 77 -1 94 26 22
89 -66 66 -94 -16 -19 -3 -26 50 -26 44 0 78 19 51 28 -6 2 -34 33 -63 69
l-51 65 23 24 c12 13 37 34 55 46 49 33 44 48 -16 48 -36 0 -50 -4 -50 -14 0
-8 6 -16 13 -19 15 -5 -1 -26 -55 -68 l-38 -31 0 51 c0 39 4 51 15 51 8 0 15
7 15 15 0 12 -13 15 -60 15 -33 0 -60 -4 -60 -10z"/>
<path d="M2180 3770 c0 -6 7 -13 15 -16 12 -5 15 -27 15 -110 0 -87 -3 -104
-17 -113 -25 -14 -12 -22 46 -28 43 -4 51 -3 51 11 0 9 -7 16 -15 16 -10 0
-15 10 -15 33 0 17 -3 56 -7 86 -9 74 6 65 70 -43 55 -94 74 -113 101 -103 13
5 16 24 16 122 0 94 3 117 15 121 8 4 15 12 15 20 0 10 -14 14 -49 14 -55 0
-73 -13 -41 -30 18 -10 20 -20 19 -98 0 -60 -3 -82 -10 -72 -5 8 -33 56 -62
105 l-52 90 -48 3 c-29 2 -47 -1 -47 -8z"/>
<path d="M2490 3770 c0 -5 9 -14 20 -20 18 -10 20 -21 20 -105 0 -84 -2 -96
-20 -107 -41 -26 -21 -34 83 -33 l102 0 3 33 c3 26 0 32 -16 32 -11 0 -22 -7
-26 -15 -3 -10 -19 -15 -47 -15 l-41 0 4 101 c2 83 6 102 21 110 32 19 17 29
-43 29 -33 0 -60 -4 -60 -10z"/>
<path d="M2809 3773 c0 -5 -2 -18 -5 -29 -2 -12 3 -27 11 -34 11 -9 16 -7 24
8 6 11 22 22 36 24 l25 5 0 -104 c0 -97 -2 -105 -20 -110 -41 -11 -13 -28 48
-30 47 -2 62 0 62 11 0 7 -9 16 -20 19 -18 5 -20 14 -20 106 0 100 0 101 24
101 13 0 30 -10 38 -22 19 -29 38 -15 38 28 l0 34 -120 0 c-66 0 -120 -3 -121
-7z"/>
<path d="M3070 3770 c0 -5 9 -14 20 -20 18 -10 20 -21 20 -111 0 -92 -2 -101
-20 -106 -11 -3 -20 -10 -20 -17 0 -7 34 -11 108 -11 l107 0 3 33 c2 24 -1 32
-13 32 -8 0 -18 -7 -21 -15 -4 -10 -20 -15 -50 -15 l-44 0 0 40 c0 33 3 40 19
40 11 0 23 -4 26 -10 13 -22 25 -8 25 30 0 40 -13 53 -24 25 -3 -8 -15 -15
-26 -15 -17 0 -20 6 -20 50 0 49 1 50 30 50 17 0 39 -9 50 -20 29 -29 40 -25
40 15 l0 35 -105 0 c-61 0 -105 -4 -105 -10z"/>
<path d="M3560 3766 c0 -7 9 -16 20 -19 18 -5 20 -14 20 -95 0 -99 -5 -122
-26 -122 -8 0 -14 -7 -14 -15 0 -12 13 -15 60 -15 44 0 60 4 60 14 0 7 -9 16
-20 19 -16 4 -20 14 -20 51 l0 46 60 0 60 0 0 -45 c0 -34 -5 -47 -20 -55 -33
-17 -13 -30 46 -30 41 0 54 4 54 15 0 8 -6 15 -14 15 -19 0 -29 76 -21 156 5
44 12 64 21 64 8 0 14 7 14 15 0 11 -13 15 -54 15 -56 0 -85 -17 -47 -27 17
-4 21 -13 21 -50 l0 -44 -57 3 -58 3 1 39 c1 24 8 42 18 48 31 18 15 28 -44
28 -44 0 -60 -4 -60 -14z"/>
<path d="M3875 3771 c-3 -6 2 -14 11 -19 25 -14 24 -200 -1 -218 -27 -20 -8
-34 46 -34 50 0 63 13 34 34 -13 9 -15 28 -13 91 l3 80 30 -53 c67 -119 89
-147 118 -150 l27 -3 0 120 c0 111 2 121 20 131 31 17 14 30 -39 30 -57 0 -69
-9 -41 -30 19 -14 21 -24 18 -100 l-3 -85 -44 80 c-70 127 -77 135 -121 135
-21 0 -41 -4 -45 -9z"/>
<path d="M4185 3769 c-4 -6 2 -13 14 -16 20 -5 21 -12 21 -109 0 -94 -2 -104
-20 -114 -32 -17 -13 -30 45 -30 58 0 77 13 45 30 -18 10 -20 20 -20 111 0 79
3 101 15 105 8 4 15 12 15 20 0 17 -105 20 -115 3z"/>
<path d="M4640 3660 c-24 -66 -47 -123 -51 -126 -5 -3 -9 -12 -9 -20 0 -10 12
-14 44 -14 48 0 67 13 40 28 -9 5 -14 18 -12 28 5 27 102 34 112 7 4 -11 1
-22 -8 -29 -38 -28 -15 -32 147 -30 l162 2 3 32 c3 26 0 32 -16 32 -11 0 -22
-7 -26 -15 -3 -10 -19 -15 -46 -15 l-40 0 0 100 c0 90 2 100 20 110 33 17 13
30 -46 30 -41 0 -54 -4 -54 -15 0 -8 6 -15 14 -15 12 0 15 -21 18 -97 3 -83 0
-101 -14 -115 -36 -36 -44 -26 -96 122 -38 110 -41 115 -70 118 -30 3 -30 3
-72 -118z m99 -27 c1 -19 -4 -23 -28 -23 -17 0 -32 4 -35 8 -3 5 2 32 12 61
l16 53 17 -38 c10 -22 18 -49 18 -61z"/>
<path d="M5390 3766 c0 -8 7 -16 15 -20 12 -4 15 -25 15 -99 0 -81 -3 -96 -20
-112 -28 -25 -18 -32 45 -32 40 0 55 4 55 13 0 8 -7 14 -15 14 -16 0 -29 37
-23 67 2 13 15 19 49 23 53 6 74 20 83 55 9 35 -9 72 -43 90 -40 20 -161 21
-161 1z m134 -32 c19 -18 21 -55 4 -72 -7 -7 -25 -12 -40 -12 -26 0 -28 3 -28
43 0 24 3 47 7 50 11 12 41 7 57 -9z"/>
<path d="M5620 3766 c0 -7 9 -16 20 -19 18 -5 20 -14 20 -96 0 -78 -3 -94 -20
-111 -31 -31 -24 -38 40 -38 42 0 60 4 60 13 0 7 -9 15 -20 18 -18 5 -20 14
-20 106 0 90 2 101 20 111 36 19 21 30 -40 30 -44 0 -60 -4 -60 -14z"/>
<path d="M5780 3767 c0 -8 7 -17 15 -21 12 -4 15 -25 15 -100 0 -71 -4 -98
-15 -110 -26 -26 -17 -33 42 -32 56 1 83 18 43 29 -16 4 -20 13 -20 46 0 41 0
41 39 41 54 0 85 27 85 74 0 60 -29 80 -124 84 -66 3 -80 1 -80 -11z m123 -26
c48 -19 34 -91 -19 -91 -22 0 -24 4 -24 50 0 52 4 56 43 41z"/>
<path d="M683 3524 c-7 -3 -13 -18 -13 -34 0 -27 -3 -29 -90 -50 -119 -29
-145 -49 -194 -141 -53 -98 -56 -101 -148 -161 l-78 -51 0 -148 c0 -98 4 -150
11 -155 8 -4 9 -29 5 -74 -7 -66 -6 -68 24 -99 30 -29 36 -31 106 -31 67 0 74
2 74 20 0 12 -12 26 -32 36 -45 23 -44 21 -14 45 39 31 84 101 98 153 11 41
10 51 -10 98 l-22 53 25 -28 c49 -56 45 -139 -11 -213 -30 -39 -35 -52 -29
-80 8 -44 29 -54 109 -54 49 0 66 4 66 13 0 16 -32 47 -48 47 -23 0 -22 21 3
69 18 36 25 66 25 106 0 30 4 55 9 55 5 0 23 12 40 26 l31 26 -29 36 c-35 45
-45 75 -36 110 7 25 8 24 22 -22 19 -65 38 -91 90 -127 31 -22 43 -37 43 -54
0 -39 35 -67 78 -64 20 2 45 -2 56 -8 16 -9 16 -13 5 -31 -12 -19 -20 -21 -66
-15 -45 5 -54 3 -59 -12 -7 -18 14 -42 60 -70 24 -15 10 -55 -20 -55 -35 0
-74 -21 -74 -41 0 -17 45 -39 80 -39 25 0 35 -42 14 -55 -46 -28 -67 -52 -60
-70 5 -15 14 -17 58 -12 41 5 54 3 63 -10 10 -13 8 -23 -12 -52 -13 -19 -22
-42 -21 -50 5 -25 38 -25 70 -1 25 18 34 20 54 11 21 -9 22 -14 14 -36 -15
-39 -12 -75 6 -82 17 -6 64 33 64 54 0 8 12 13 29 13 26 0 29 -4 35 -42 10
-61 23 -33 18 40 -3 45 -8 62 -18 62 -8 0 -14 4 -14 10 0 5 -23 19 -50 31
-169 73 -199 311 -55 426 34 28 35 29 35 104 0 56 -4 80 -15 89 -36 30 -57
-16 -35 -75 8 -22 7 -27 -14 -36 -20 -9 -29 -7 -55 12 -17 12 -34 31 -37 42
-3 11 -30 46 -60 78 -73 79 -73 106 -3 183 36 39 58 56 76 56 29 0 63 17 63
30 0 6 -9 10 -19 10 -11 0 -23 5 -27 12 -5 8 3 9 30 5 34 -5 39 -3 56 26 11
18 20 38 20 45 0 15 -32 16 -47 1 -16 -16 -53 -1 -53 20 0 25 -18 38 -72 52
-42 11 -47 16 -50 43 -3 27 -7 31 -33 33 -16 1 -36 0 -42 -3z m27 -99 c6 -8 9
-19 5 -25 -14 -23 -62 -2 -52 24 8 20 31 21 47 1z m120 -55 c0 -5 -11 -10 -25
-10 -14 0 -25 5 -25 10 0 6 11 10 25 10 14 0 25 -4 25 -10z"/>
<path d="M1565 3451 c-38 -10 -93 -25 -120 -33 -50 -15 -51 -15 -78 8 -35 30
-89 40 -138 25 -39 -12 -47 -34 -9 -24 26 7 65 -3 84 -23 23 -22 20 -37 -3
-24 -22 11 -80 13 -105 4 -30 -11 -16 -23 31 -26 44 -3 76 -28 36 -28 -14 0
-15 -2 -4 -9 7 -5 10 -14 7 -20 -4 -6 -2 -11 4 -11 6 0 8 -5 3 -12 -4 -7 -8
-38 -9 -68 -1 -30 -5 -71 -9 -91 -7 -34 -6 -36 34 -51 39 -16 42 -15 54 3 8
10 29 22 47 26 70 13 100 70 64 121 -8 12 -10 22 -5 22 12 0 41 -52 41 -75 0
-8 5 -15 11 -15 16 0 4 -65 -22 -125 l-22 -49 28 -20 c15 -12 47 -41 70 -65
l43 -43 21 21 c22 22 28 56 11 66 -6 4 -8 15 -5 25 4 14 1 16 -17 13 -27 -5
-64 19 -54 35 4 7 16 12 26 12 31 0 85 55 100 102 11 35 15 39 18 20 2 -13 -6
-41 -18 -64 -24 -46 -17 -57 35 -58 17 0 40 -3 53 -6 16 -5 22 -2 22 10 0 20
43 66 61 66 7 0 4 -9 -8 -22 -32 -36 -43 -63 -43 -108 0 -43 18 -88 43 -109 9
-6 21 -34 27 -62 10 -42 10 -52 -4 -72 -79 -106 -80 -112 -37 -120 47 -10 71
2 71 33 0 19 10 36 30 53 25 22 29 30 24 59 l-6 33 20 -20 c24 -22 28 -56 17
-128 l-8 -48 54 3 c47 3 54 5 51 23 -1 11 -5 40 -8 65 -5 38 -3 48 15 64 29
26 28 48 -2 41 -16 -4 -31 1 -50 19 -32 29 -29 45 18 96 57 61 67 100 44 165
-11 28 -9 33 24 66 62 62 61 107 -3 185 -45 55 -49 75 -20 104 29 29 110 29
117 -1 6 -20 110 -75 121 -64 5 5 -5 29 -36 80 -20 32 -56 43 -144 44 -59 1
-95 -15 -114 -50 -23 -45 -17 -74 26 -124 48 -55 51 -87 13 -127 -34 -35 -50
-35 -100 1 -68 49 -117 103 -177 194 -31 48 -66 91 -76 97 -26 14 -83 11 -165
-9z m-203 -113 c-9 -9 -42 -1 -42 12 0 4 12 5 26 2 15 -3 22 -8 16 -14z m-17
-118 c0 -7 -6 -15 -12 -17 -8 -3 -13 4 -13 17 0 13 5 20 13 18 6 -3 12 -11 12
-18z m-45 -110 c0 -5 -2 -10 -4 -10 -3 0 -8 5 -11 10 -3 6 -1 10 4 10 6 0 11
-4 11 -10z"/>
<path d="M770 3159 c-16 -23 -28 -45 -25 -49 3 -4 18 -10 33 -13 23 -5 35 -17
53 -54 21 -42 28 -48 59 -51 42 -4 60 16 60 70 0 56 -23 93 -73 117 -60 29
-73 27 -107 -20z"/>
<path d="M1124 3035 c0 -60 1 -84 3 -52 2 32 2 81 0 110 -2 29 -3 3 -3 -58z"/>
<path d="M1023 2980 c0 -25 2 -35 4 -22 2 12 2 32 0 45 -2 12 -4 2 -4 -23z"/>
<path d="M1223 2970 c0 -30 2 -43 4 -27 2 15 2 39 0 55 -2 15 -4 2 -4 -28z"/>
<path d="M1420 2983 c-17 -21 -29 -46 -26 -55 3 -12 -8 -24 -32 -39 -53 -31
-68 -17 -64 55 3 49 2 56 -15 56 -33 0 -43 -21 -43 -95 l0 -70 46 -44 c59 -55
86 -116 86 -191 0 -101 -58 -191 -148 -230 -74 -33 -84 -46 -84 -119 0 -65 15
-76 22 -16 2 24 8 31 28 32 19 2 30 -5 45 -30 12 -18 30 -33 44 -35 22 -4 23
-1 19 54 -4 72 13 88 59 55 30 -23 73 -25 80 -5 2 6 -8 28 -23 49 -37 55 -25
71 48 67 42 -3 57 0 61 11 7 18 -38 67 -60 67 -10 0 -13 9 -11 27 2 23 9 29
42 35 40 9 66 24 66 39 0 13 -56 39 -85 39 -21 0 -25 5 -25 30 0 18 5 30 13
30 7 0 25 12 40 28 38 39 23 57 -41 49 -39 -4 -54 -2 -63 9 -10 13 -10 19 -1
32 7 10 18 29 25 45 15 35 23 34 48 -8 24 -41 32 -42 59 -15 26 26 16 48 -40
87 -36 25 -40 32 -36 61 3 17 3 32 1 32 -2 0 -18 -17 -35 -37z"/>
<path d="M1084 2971 c-4 -27 -12 -41 -25 -44 -14 -4 -19 -14 -19 -39 0 -42 4
-46 34 -41 23 5 25 10 28 80 3 81 -8 109 -18 44z"/>
<path d="M1140 2935 c0 -72 1 -76 26 -85 35 -14 34 -15 34 34 0 35 -4 45 -20
49 -14 4 -20 14 -20 35 0 17 -4 34 -10 37 -6 4 -10 -22 -10 -70z"/>
<path d="M1122 2802 c-1 -54 -6 -74 -17 -78 -13 -5 -15 -36 -15 -194 0 -174 1
-188 19 -193 10 -2 26 0 35 5 14 8 16 33 16 193 0 155 -2 185 -15 185 -11 0
-15 18 -18 78 l-3 77 -2 -73z"/>
<path d="M1222 2829 c-1 -15 -10 -33 -19 -40 -16 -13 -18 -31 -13 -194 l5
-180 30 0 30 0 3 188 c2 158 0 187 -12 187 -9 0 -16 13 -19 33 -3 27 -4 28 -5
6z"/>
<path d="M1003 2791 c-20 -19 -21 -30 -23 -189 -1 -182 3 -197 52 -190 23 3
23 3 26 191 2 157 0 187 -12 187 -8 0 -16 5 -18 10 -2 6 -13 2 -25 -9z"/>
<path d="M2280 2766 c0 -19 5 -38 10 -41 6 -4 10 10 10 34 0 23 -4 41 -10 41
-5 0 -10 -15 -10 -34z"/>
<path d="M2797 2793 c-11 -11 -8 -75 3 -68 6 4 8 10 5 15 -3 5 -1 20 5 34 9
24 2 35 -13 19z"/>
<path d="M4350 2766 c0 -19 5 -38 10 -41 6 -3 10 -2 10 4 0 6 8 8 18 4 16 -6
16 -5 0 14 -10 11 -18 27 -18 36 0 9 -4 17 -10 17 -5 0 -10 -15 -10 -34z"/>
<path d="M4530 2758 c0 -42 13 -44 23 -3 4 18 5 18 6 -2 1 -30 21 -40 21 -11
0 20 -30 58 -45 58 -3 0 -5 -19 -5 -42z"/>
<path d="M2240 2753 c0 -20 3 -33 7 -30 9 10 10 67 1 67 -5 0 -8 -16 -8 -37z"/>
<path d="M2427 2783 c-10 -9 -9 -41 1 -47 5 -3 9 8 9 24 0 33 -1 33 -10 23z"/>
<path d="M2495 2778 c-4 -10 -4 -26 0 -35 8 -17 8 -17 12 0 3 9 3 25 0 35 -4
16 -4 16 -12 0z"/>
<path d="M2540 2760 c0 -18 4 -29 10 -25 6 3 10 15 10 25 0 10 -4 22 -10 25
-6 4 -10 -7 -10 -25z"/>
<path d="M2590 2786 c0 -16 24 -65 30 -61 10 6 -11 65 -22 65 -4 0 -8 -2 -8
-4z"/>
<path d="M2640 2761 c0 -17 5 -33 10 -36 6 -4 10 8 10 29 0 20 -4 36 -10 36
-5 0 -10 -13 -10 -29z"/>
<path d="M2930 2782 c0 -16 38 -53 44 -43 3 4 -6 19 -19 31 -14 13 -25 18 -25
12z"/>
<path d="M2990 2760 c0 -16 4 -30 8 -30 5 0 7 14 4 30 -2 17 -6 30 -8 30 -2 0
-4 -13 -4 -30z"/>
<path d="M3057 2783 c-10 -9 -9 -41 1 -47 5 -3 9 8 10 24 1 32 -1 34 -11 23z"/>
<path d="M3117 2783 c-13 -12 -7 -40 10 -54 15 -13 15 -12 6 5 -6 10 -8 27 -6
37 5 20 1 24 -10 12z"/>
<path d="M3176 2760 c1 -44 14 -50 14 -7 0 21 -3 37 -7 37 -5 0 -8 -14 -7 -30z"/>
<path d="M3230 2777 c0 -16 38 -49 51 -45 6 2 -3 16 -20 31 -18 15 -31 22 -31
14z"/>
<path d="M3280 2783 c1 -14 40 -56 46 -50 3 3 -2 17 -13 31 -18 25 -33 34 -33
19z"/>
<path d="M3340 2755 c0 -19 5 -35 10 -35 6 0 10 16 10 35 0 19 -4 35 -10 35
-5 0 -10 -16 -10 -35z"/>
<path d="M3400 2761 c0 -16 6 -31 15 -34 11 -5 12 -1 6 16 -4 12 -6 28 -4 35
3 6 0 12 -6 12 -6 0 -11 -13 -11 -29z"/>
<path d="M3473 2755 c0 -22 2 -30 4 -17 2 12 2 30 0 40 -3 9 -5 -1 -4 -23z"/>
<path d="M3566 2760 c1 -44 14 -50 14 -7 0 21 -3 37 -7 37 -5 0 -8 -14 -7 -30z"/>
<path d="M3610 2761 c0 -17 5 -33 10 -36 6 -3 10 1 10 11 0 13 3 14 13 5 11
-9 14 -5 15 19 0 17 -4 30 -9 30 -6 0 -8 -4 -4 -9 3 -5 1 -12 -5 -16 -5 -3
-10 1 -10 9 0 9 -4 16 -10 16 -5 0 -10 -13 -10 -29z"/>
<path d="M3706 2770 c3 -14 10 -32 15 -40 7 -12 8 -11 9 6 0 11 -7 29 -16 40
-14 18 -15 18 -8 -6z"/>
<path d="M3750 2761 c0 -17 5 -33 10 -36 6 -4 10 8 10 29 0 20 -4 36 -10 36
-5 0 -10 -13 -10 -29z"/>
<path d="M3788 2760 c3 -21 8 -28 14 -22 12 12 7 44 -8 49 -7 2 -9 -8 -6 -27z"/>
<path d="M3822 2759 c3 -43 18 -47 18 -5 0 20 -5 36 -10 36 -6 0 -9 -14 -8
-31z"/>
<path d="M3880 2761 c0 -17 5 -33 10 -36 6 -3 10 2 10 11 0 14 3 15 12 6 16
-16 31 -15 21 1 -4 6 -7 21 -6 32 1 16 1 16 -3 3 -7 -22 -24 -24 -24 -3 0 8
-4 15 -10 15 -5 0 -10 -13 -10 -29z"/>
<path d="M4670 2761 c0 -17 5 -33 10 -36 6 -4 10 8 10 29 0 20 -4 36 -10 36
-5 0 -10 -13 -10 -29z"/>
<path d="M4700 2773 c0 -10 5 -25 10 -33 7 -11 10 -7 10 18 0 17 -4 32 -10 32
-5 0 -10 -8 -10 -17z"/>
<path d="M4732 2759 c3 -43 18 -47 18 -5 0 20 -5 36 -10 36 -6 0 -9 -14 -8
-31z"/>
<path d="M4790 2777 c0 -7 9 -20 20 -30 14 -12 20 -13 20 -4 0 7 -9 20 -20 30
-14 12 -20 13 -20 4z"/>
<path d="M4860 2753 c0 -20 3 -33 7 -29 11 11 12 66 2 66 -5 0 -9 -16 -9 -37z"/>
<path d="M4946 2760 c1 -44 14 -50 14 -7 0 21 -3 37 -7 37 -5 0 -8 -14 -7 -30z"/>
<path d="M4990 2761 c0 -17 5 -33 10 -36 6 -4 10 8 10 29 0 20 -4 36 -10 36
-5 0 -10 -13 -10 -29z"/>
<path d="M5022 2765 c-1 -13 2 -26 7 -29 4 -3 8 8 9 24 1 36 -13 40 -16 5z"/>
<path d="M5086 2770 c3 -14 10 -32 15 -40 7 -12 8 -11 9 6 0 11 -7 29 -16 40
-14 18 -15 18 -8 -6z"/>
<path d="M5130 2755 c0 -19 5 -35 10 -35 6 0 10 16 10 35 0 19 -4 35 -10 35
-5 0 -10 -16 -10 -35z"/>
<path d="M5168 2760 c3 -21 8 -28 14 -22 12 12 7 44 -8 49 -7 2 -9 -8 -6 -27z"/>
<path d="M5206 2760 c1 -44 14 -50 14 -7 0 21 -3 37 -7 37 -5 0 -8 -14 -7 -30z"/>
<path d="M5260 2780 c0 -15 38 -51 44 -41 3 4 -6 18 -19 29 -14 12 -25 17 -25
12z"/>
<path d="M2316 2753 c9 -38 14 -42 14 -10 0 14 -5 29 -10 32 -7 4 -8 -3 -4
-22z"/>
<path d="M2726 2763 c-4 -9 -2 -21 4 -27 7 -7 10 -2 10 17 0 31 -5 34 -14 10z"/>
<path d="M3979 2778 c-5 -17 -4 -50 3 -54 4 -3 8 9 8 25 0 17 -2 31 -5 31 -3
0 -5 -1 -6 -2z"/>
<path d="M4080 2756 c0 -14 5 -28 10 -31 6 -4 10 7 10 24 0 17 -4 31 -10 31
-5 0 -10 -11 -10 -24z"/>
<path d="M4124 2765 c-3 -8 -4 -20 -1 -27 3 -7 6 -3 6 10 1 29 21 29 21 0 0
-17 3 -19 12 -10 8 8 8 15 -2 27 -16 19 -29 19 -36 0z"/>
<path d="M4212 2750 c0 -19 2 -27 5 -17 2 9 2 25 0 35 -3 9 -5 1 -5 -18z"/>
<path d="M4238 2754 c2 -13 8 -24 13 -24 5 0 6 6 3 14 -3 8 -1 17 5 21 7 3 11
-2 11 -14 0 -12 5 -21 11 -21 6 0 9 10 7 22 -2 16 -10 23 -29 25 -22 1 -25 -2
-21 -23z"/>
<path d="M4317 2755 c3 -14 10 -25 15 -25 13 0 6 43 -8 47 -7 2 -10 -6 -7 -22z"/>
<path d="M4380 2769 c0 -5 5 -7 10 -4 6 3 10 8 10 11 0 2 -4 4 -10 4 -5 0 -10
-5 -10 -11z"/>
<path d="M4490 2756 c0 -14 5 -28 10 -31 6 -4 10 7 10 24 0 17 -4 31 -10 31
-5 0 -10 -11 -10 -24z"/>
<path d="M2340 2751 c0 -10 6 -21 13 -24 10 -4 13 2 9 19 -5 28 -22 32 -22 5z"/>
<path d="M2762 2750 c0 -14 2 -19 5 -12 2 6 2 18 0 25 -3 6 -5 1 -5 -13z"/>
<path d="M2880 2750 c0 -11 4 -20 9 -20 5 0 7 9 4 20 -3 11 -7 20 -9 20 -2 0
-4 -9 -4 -20z"/>
<path d="M4015 2750 c10 -11 20 -18 23 -15 7 6 -18 35 -31 35 -5 0 -2 -9 8
-20z"/>
<path d="M4410 2751 c0 -10 6 -21 13 -24 10 -4 13 2 9 19 -5 28 -22 32 -22 5z"/>
<path d="M4590 2750 c0 -11 4 -20 8 -20 4 0 8 9 9 20 1 11 -2 20 -8 20 -5 0
-9 -9 -9 -20z"/>
<path d="M2460 2745 c0 -8 5 -15 10 -15 6 0 10 7 10 15 0 8 -4 15 -10 15 -5 0
-10 -7 -10 -15z"/>
<path d="M2575 2749 c-4 -6 -5 -12 -2 -15 2 -3 7 2 10 11 7 17 1 20 -8 4z"/>
<path d="M3676 2745 c-3 -8 -1 -15 4 -15 6 0 10 7 10 15 0 8 -2 15 -4 15 -2 0
-6 -7 -10 -15z"/>
<path d="M2850 2740 c0 -5 5 -10 10 -10 6 0 10 5 10 10 0 6 -4 10 -10 10 -5 0
-10 -4 -10 -10z"/>
<path d="M1123 2245 c0 -44 2 -61 4 -37 2 23 2 59 0 80 -2 20 -4 1 -4 -43z"/>
</g>
</svg>
