<?xml version="1.0" standalone="no"?>
<!DOCTYPE svg PUBLIC "-//W3C//DTD SVG 20010904//EN"
 "http://www.w3.org/TR/2001/REC-SVG-20010904/DTD/svg10.dtd">
<svg version="1.0" xmlns="http://www.w3.org/2000/svg"
 width="500.000000pt" height="500.000000pt" viewBox="0 0 500.000000 500.000000"
 preserveAspectRatio="xMidYMid meet">

<g transform="translate(0.000000,500.000000) scale(0.100000,-0.100000)"
fill="#000000" stroke="none">
<path d="M635 3496 c-32 -14 -52 -45 -57 -86 -2 -19 -10 -26 -33 -30 -24 -4
-31 -11 -33 -35 -2 -17 -12 -39 -21 -50 -10 -11 -21 -27 -24 -36 -3 -11 -21
-18 -52 -21 -57 -7 -89 -35 -104 -91 -11 -43 -119 -706 -128 -788 -10 -87 44
-118 210 -119 74 0 77 -1 67 -19 -5 -11 -10 -53 -10 -93 0 -57 -5 -78 -20 -98
-11 -14 -20 -28 -20 -32 0 -5 122 -8 270 -8 149 0 270 3 270 8 0 4 -9 18 -20
32 -15 19 -20 41 -20 92 0 37 -4 78 -9 91 l-9 24 109 5 c117 6 150 18 171 63
9 19 -2 105 -51 417 -35 216 -68 410 -73 430 -16 54 -48 80 -108 86 -30 3 -50
9 -50 17 0 7 -9 23 -19 37 -11 13 -21 37 -23 53 -2 24 -9 31 -33 35 -23 4 -31
11 -33 30 -5 42 -26 72 -59 87 -39 16 -50 16 -88 -1z m108 -37 c18 -23 24 -79
7 -79 -5 0 -10 10 -10 22 0 30 -28 58 -58 58 -30 0 -62 -26 -62 -51 0 -10 -4
-21 -10 -24 -13 -8 -13 41 1 66 23 43 99 47 132 8z m-29 -35 c13 -35 7 -44
-34 -44 -28 0 -40 4 -40 14 0 31 13 46 40 46 16 0 30 -7 34 -16z m116 -84 c0
-19 -7 -20 -150 -20 -143 0 -150 1 -150 20 0 19 7 20 150 20 143 0 150 -1 150
-20z m-232 -57 c-25 -2 -52 -11 -58 -18 -7 -8 -22 -14 -34 -14 -18 1 -18 2 -3
6 10 3 16 10 14 17 -3 8 14 12 62 12 44 1 51 -1 19 -3z m220 -17 c-4 -19 -1
-24 14 -23 13 1 17 7 12 22 -5 20 -5 20 10 1 10 -12 16 -39 16 -68 l0 -48
-190 0 -190 0 0 45 c0 43 1 45 30 45 17 0 30 5 31 13 0 10 2 10 6 0 3 -10 38
-13 123 -13 101 0 119 2 124 17 4 9 1 20 -6 25 -9 5 -8 8 6 8 14 0 17 -6 14
-24z m-358 -90 c0 -45 10 -56 51 -56 15 0 19 -7 19 -39 0 -34 -5 -43 -30 -58
-17 -10 -43 -35 -58 -57 l-27 -39 0 -246 c0 -278 3 -291 78 -340 30 -20 37
-30 35 -50 l-3 -26 -135 0 c-146 1 -175 9 -186 50 -7 29 111 784 132 841 16
45 41 62 92 63 31 1 32 0 32 -43z m523 35 c16 -6 30 -25 41 -53 13 -37 120
-673 133 -799 9 -83 -41 -104 -232 -97 -89 3 -90 3 -93 29 -2 21 4 31 33 48
67 39 75 73 75 339 0 264 -3 280 -69 332 -35 29 -41 39 -41 72 0 31 4 38 19
38 41 0 51 11 51 56 0 42 1 44 29 44 16 0 41 -4 54 -9z m-418 -112 c-4 -5 43
-8 117 -7 121 2 122 2 38 8 l-85 5 88 5 87 5 0 -35 0 -35 -130 0 -130 0 0 38
c0 23 4 36 10 32 6 -4 8 -11 5 -16z m282 -95 c24 -12 33 -22 31 -36 -3 -18
-188 -268 -198 -267 -7 0 -203 262 -204 273 -1 5 15 17 34 27 48 26 284 28
337 3z m-292 -176 c50 -66 94 -129 99 -139 7 -14 -12 -45 -89 -146 -53 -70
-102 -128 -108 -128 -21 0 -28 81 -25 290 4 193 9 246 27 245 3 -1 47 -55 96
-122z m359 96 c8 -21 8 -462 0 -492 -4 -13 -10 -22 -15 -20 -20 7 -200 261
-195 274 9 23 188 254 196 254 4 0 11 -7 14 -16z m-129 -401 c52 -69 95 -132
95 -139 0 -32 -56 -44 -200 -44 -153 0 -207 13 -197 49 5 22 187 261 198 261
5 0 51 -57 104 -127z m-200 -223 c-18 -5 18 -8 95 -7 85 0 112 2 85 7 l-40 8
40 -2 c33 -1 40 -5 40 -21 0 -19 -7 -20 -122 -22 -74 -1 -125 2 -129 8 -12 19
5 39 33 38 l28 -1 -30 -8z m118 3 c-13 -2 -33 -2 -45 0 -13 2 -3 4 22 4 25 0
35 -2 23 -4z m167 -91 c18 -16 20 -29 18 -78 l-4 -59 -204 0 -204 0 -2 60 c-2
46 1 63 15 76 25 24 28 24 201 22 142 -1 162 -4 180 -21z m-22 -182 c34 0 62
-4 62 -10 0 -5 -90 -9 -231 -9 -179 0 -229 2 -221 12 7 9 55 11 169 10 87 -1
186 -3 221 -3z"/>
<path d="M526 2221 c-19 -7 -19 -8 2 -13 15 -4 22 -2 22 8 0 8 -1 14 -2 13 -2
0 -12 -4 -22 -8z"/>
<path d="M810 2216 c0 -9 7 -12 21 -9 16 4 17 8 7 14 -19 13 -28 11 -28 -5z"/>
<path d="M598 2212 c40 -3 53 -14 32 -27 -16 -10 -11 -51 8 -68 24 -22 65 -21
85 1 20 22 22 67 5 79 -8 5 4 10 32 14 25 3 -11 5 -80 5 -69 0 -106 -2 -82 -4z
m113 -38 c17 -21 0 -49 -32 -49 -24 0 -36 23 -25 51 7 19 40 18 57 -2z"/>
<path d="M2635 2945 c-80 -31 -135 -106 -135 -184 0 -83 44 -135 163 -194 92
-46 107 -59 107 -97 0 -37 -32 -60 -85 -60 -42 0 -117 29 -148 57 -21 19 -23
17 -66 -59 l-32 -57 53 -30 c144 -82 348 -61 417 43 21 33 26 51 26 107 0 93
-28 127 -160 195 -104 54 -138 84 -128 112 16 46 79 55 163 23 l50 -19 17 31
c48 89 49 86 -12 113 -69 32 -173 40 -230 19z"/>
<path d="M1640 2614 l0 -336 138 4 c125 3 142 6 197 31 77 36 148 110 172 180
11 33 18 80 17 127 0 91 -31 167 -93 229 -76 76 -157 101 -326 101 l-105 0 0
-336z m253 182 c67 -28 126 -134 112 -202 -2 -10 -6 -31 -10 -46 -6 -33 -58
-94 -94 -113 -14 -7 -44 -15 -66 -17 l-40 -3 -3 198 -2 197 35 0 c20 0 50 -6
68 -14z"/>
<path d="M2240 2615 l0 -335 75 0 75 0 0 335 0 335 -75 0 -75 0 0 -335z"/>
<path d="M3010 2615 l0 -335 75 0 75 0 0 135 0 135 110 0 110 0 0 -135 0 -135
75 0 75 0 -2 333 -3 332 -72 3 -73 3 0 -136 0 -135 -110 0 -110 0 0 135 0 135
-75 0 -75 0 0 -335z"/>
<path d="M3655 2938 c-2 -7 -15 -146 -29 -308 -15 -162 -28 -307 -29 -322 l-4
-28 77 0 77 0 13 190 c7 105 16 192 19 195 4 2 18 -29 31 -68 14 -40 43 -124
66 -187 l41 -115 46 -5 45 -6 68 198 c38 108 70 196 71 194 3 -3 33 -355 33
-383 0 -10 36 -13 154 -13 l154 0 24 63 24 62 131 3 131 3 23 -66 23 -65 78 0
c43 0 78 4 78 9 0 4 -27 75 -60 157 -33 82 -93 229 -132 327 l-71 178 -71 -3
-70 -3 -130 -322 c-71 -178 -131 -321 -133 -320 -2 2 -14 134 -28 293 -14 159
-28 304 -31 322 l-5 32 -77 0 c-75 0 -78 -1 -88 -27 -6 -16 -40 -101 -74 -191
-35 -89 -67 -159 -71 -155 -4 4 -35 82 -69 173 -34 91 -66 173 -72 183 -7 14
-22 17 -84 17 -51 0 -76 -4 -79 -12z m1053 -295 c18 -47 30 -88 28 -90 -2 -2
-35 -3 -73 -1 l-69 3 34 88 c19 48 37 87 41 87 3 0 21 -39 39 -87z"/>
</g>
</svg>
